<?xml version="1.0" encoding="utf-8"?><svg viewBox="0 0 512 512" xmlns="http://www.w3.org/2000/svg" xmlns:xlink="http://www.w3.org/1999/xlink"><style>:root>svg{display:none}:root>svg:target{display:block}</style><svg fill="none" viewBox="0 0 13 10" id="arrow" xmlns="http://www.w3.org/2000/svg"><path d="M1 5h11.1M7.66.56L12.1 5 7.66 9.44" stroke="currentColor" stroke-miterlimit="10" stroke-linecap="round" stroke-linejoin="round"/></svg><svg fill="none" viewBox="0 0 17 16" id="balloon" xmlns="http://www.w3.org/2000/svg"><path d="M14.486 11.567c1.95-3.356.858-7.648-2.42-9.599C8.711.018 4.42 1.11 2.468 4.388c-1.95 3.355-.858 7.647 2.42 9.598a6.973 6.973 0 007.178 0M15.5 15l-3.434-1.014M14.486 11.567L15.5 15" stroke="currentColor" stroke-width="1.5" stroke-linecap="round" stroke-linejoin="round"/></svg><svg fill="none" viewBox="0 0 30 29" id="best-price" xmlns="http://www.w3.org/2000/svg"><path d="M12.69 29c-.927 0-1.721-.618-2.648-1.5l-8.52-8.52c-2.03-2.03-2.03-3.266 0-5.252L14.986.265c.177-.177.442-.265.707-.265l11.432 1.148h.088c.398.088.707.441.707.838l1.103 11.344c.044.265-.088.53-.265.707L15.34 27.455C14.412 28.382 13.617 29 12.69 29zm3.267-27.234L2.803 14.919c-1.324 1.325-1.324 1.457 0 2.781l8.519 8.52c.441.44 1.015.97 1.368.97.353 0 .971-.574 1.369-.97l13.153-13.154L26.197 2.78l-10.24-1.015z" fill="#E30611"/><path d="M5.407 17.7a.4.4 0 01-.309-.132c-1.147-1.148-.883-1.854.133-2.87l4.016-4.016a.427.427 0 01.618 0 .427.427 0 010 .618L5.85 15.317c-.795.794-.84.927-.133 1.633a.427.427 0 010 .618c-.044.088-.176.132-.309.132zM10.483 10.594a.4.4 0 01-.309-.133.427.427 0 010-.618l.353-.353a.427.427 0 01.618 0 .427.427 0 010 .618l-.353.353a.477.477 0 01-.309.133zM20.989 11.565A3.655 3.655 0 0117.325 7.9a3.655 3.655 0 013.664-3.663A3.655 3.655 0 0124.652 7.9a3.655 3.655 0 01-3.663 3.664zm0-5.562c-1.06 0-1.898.839-1.898 1.898 0 1.06.838 1.898 1.898 1.898 1.059 0 1.898-.838 1.898-1.898s-.883-1.898-1.898-1.898z" fill="#E30611"/></svg><svg fill="none" viewBox="0 0 22 23" id="cart" xmlns="http://www.w3.org/2000/svg"><path d="M5 4.7l-.817-3.5H1.967M7.1 14.267L5 4.7h14.817c.7 0 1.283.7 1.166 1.4l-1.75 8.167c-.116.583-.583.933-1.166.933h-9.8c-.584 0-1.05-.35-1.167-.933z" stroke="#131721" stroke-width="2" stroke-miterlimit="10" stroke-linecap="round" stroke-linejoin="round"/><path d="M17.45 19.517c-.75 0-1.5.75-1.5 1.5s.75 1.5 1.5 1.5 1.5-.75 1.5-1.5c0-1.125-.75-1.5-1.5-1.5zM8.417 19.517c-.75 0-1.5.75-1.5 1.5s.75 1.5 1.5 1.5 1.5-.75 1.5-1.5c0-1.125-.75-1.5-1.5-1.5z" fill="#131721"/></svg><svg fill="none" viewBox="0 0 19 14" id="catalog" xmlns="http://www.w3.org/2000/svg"><path d="M6 1h12M1 1h1M1 7h1M1 13h1M6 7h12M6 13h12" stroke="#fff" stroke-width="2" stroke-linecap="round" stroke-linejoin="round"/></svg><svg fill="none" viewBox="0 0 32 28" id="category-1" xmlns="http://www.w3.org/2000/svg"><path d="M8.826 19.26H1l1.304-7.825h5.218l1.304 7.826z" stroke="currentColor" stroke-width="1.5" stroke-linecap="round" stroke-linejoin="round"/><path d="M6.87 19.26v1.957c0 .718-.588 1.305-1.305 1.305H4.26a1.308 1.308 0 01-1.304-1.305v-1.956M16 22.522V4.26" stroke="currentColor" stroke-width="1.5" stroke-linecap="round" stroke-linejoin="round"/><path d="M16 22.522c0 2.158-2.485 3.913-5.543 3.913-3.06 0-5.544-1.755-5.544-3.913M6.218 8.826h5.217l1.304 7.826h-1.956M13.365 23.122c-1.63-.202-2.994-.92-3.796-1.898M23.174 19.26H31l-1.304-7.825h-5.218l-1.304 7.826z" stroke="currentColor" stroke-width="1.5" stroke-linecap="round" stroke-linejoin="round"/><path d="M25.13 19.26v1.957c0 .718.588 1.305 1.305 1.305h1.305c.717 0 1.304-.587 1.304-1.305v-1.956" stroke="currentColor" stroke-width="1.5" stroke-linecap="round" stroke-linejoin="round"/><path d="M16 22.522c0 2.158 2.485 3.913 5.544 3.913 3.058 0 5.543-1.755 5.543-3.913M25.782 8.826h-5.217l-1.304 7.826h1.956M18.635 23.122c1.63-.202 2.993-.92 3.795-1.898M10.782 1v1.304c0 1.083 2.335 1.957 5.218 1.957 2.882 0 5.217-.874 5.217-1.957V1H10.782z" stroke="currentColor" stroke-width="1.5" stroke-linecap="round" stroke-linejoin="round"/></svg><svg fill="none" viewBox="0 0 32 25" id="category-2" xmlns="http://www.w3.org/2000/svg"><path d="M1 10.546v-3.41C1 3.748 7.716 1 16 1c8.284 0 15 2.748 15 6.136v3.41" stroke="currentColor" stroke-width="1.5" stroke-linecap="round" stroke-linejoin="round"/><path d="M21.72 7.94c1.924.628 3.144 1.562 3.144 2.605 0 1.882-3.968 3.41-8.864 3.41-4.895 0-8.863-1.528-8.863-3.41 0-1.881 3.968-3.409 8.863-3.409.866 0 1.698.048 2.489.137" stroke="currentColor" stroke-width="1.5" stroke-linecap="round" stroke-linejoin="round"/><path d="M25.245 5.711C28.75 6.836 31 8.581 31 10.546c0 3.388-6.716 6.136-15 6.136-8.284 0-15-2.748-15-6.136 0-3.39 6.716-6.137 15-6.137 1.596 0 3.13.102 4.575.293M16 21.455v2.727M11.909 20.09l-2.046 2.046M20.09 20.09l2.046 2.046" stroke="currentColor" stroke-width="1.5" stroke-linecap="round" stroke-linejoin="round"/></svg><svg fill="none" viewBox="0 0 19 32" id="category-3" xmlns="http://www.w3.org/2000/svg"><path d="M9.479 10.13V4.26M4.26 1v1.304c0 1.083 2.336 1.957 5.218 1.957 2.883 0 5.217-.874 5.217-1.957V1H4.261zM6.87 12.498v-.411c0-1.083 1.167-1.957 2.608-1.957s2.608.874 2.608 1.957v.41M9.478 31a8.478 8.478 0 100-16.956 8.478 8.478 0 000 16.956zM3.608 22.522a5.877 5.877 0 013.574-5.407" stroke="currentColor" stroke-width="1.5" stroke-linecap="round" stroke-linejoin="round"/></svg><svg fill="none" viewBox="0 0 32 19" id="category-4" xmlns="http://www.w3.org/2000/svg"><path d="M8.3 17.162c-.965-.808-.907-2.47.136-3.714 1.043-1.239 2.666-1.59 3.63-.782M17.423 17.162c-.964-.808-.905-2.47.137-3.714 1.043-1.239 2.666-1.59 3.63-.782M14.685 10.776V1M5.562 10.776V1M1 1h27.372" stroke="currentColor" stroke-width="1.5" stroke-linecap="round" stroke-linejoin="round"/><path d="M14.719 14.895a1313.3 1313.3 0 012.704 2.267c.965.809 2.594.463 3.63-.782 1.043-1.238 1.102-2.9.137-3.714l-4.457-3.741M14.686 7.341c-.958-.365-2.242.046-3.116 1.088-.169.203-.319.424-.436.646M26.547 17.162c-.964-.808-.905-2.47.137-3.714 1.043-1.239 2.666-1.59 3.63-.782M23.81 10.776V1" stroke="currentColor" stroke-width="1.5" stroke-linecap="round" stroke-linejoin="round"/><path d="M23.843 14.895c1.238 1.036 2.411 2.02 2.704 2.267.965.809 2.594.463 3.63-.782 1.043-1.238 1.102-2.9.137-3.714l-4.457-3.741M23.81 7.341c-.958-.365-2.242.046-3.115 1.088-.17.203-.32.424-.437.646M5.562 7.341c-.958-.371-2.242.046-3.115 1.082-1.043 1.238-1.101 2.9-.137 3.715.639.534 5.35 4.49 5.99 5.024.964.809 2.593.463 3.63-.782 1.042-1.238 1.1-2.9.136-3.714L7.61 8.925" stroke="currentColor" stroke-width="1.5" stroke-linecap="round" stroke-linejoin="round"/></svg><svg fill="none" viewBox="0 0 32 22" id="category-5" xmlns="http://www.w3.org/2000/svg"><path d="M17.956 17.304l4.187 1.18c2.113.705 4.291-.867 4.291-3.09v-.692M23.174 1h6.521L31 12.087h-9.13L23.172 1zM12.74 15.348v-4.565h6.521v4.565M19.261 19.913v1.304h-6.522v-1.304M24.479 12.087v1.565c0 .574.587 1.044 1.304 1.044h1.304c.718 0 1.305-.47 1.305-1.044v-1.565M14.044 17.304l-4.187 1.18c-2.113.705-4.292-.867-4.292-3.09v-.692M8.826 1H2.304L1 12.087h9.13L8.826 1zM7.521 12.087v1.565c0 .574-.587 1.044-1.304 1.044H4.913c-.718 0-1.305-.47-1.305-1.044v-1.565" stroke="currentColor" stroke-width="1.5" stroke-linecap="round" stroke-linejoin="round"/></svg><svg fill="none" viewBox="0 0 19 32" id="category-6" xmlns="http://www.w3.org/2000/svg"><path d="M14.696 1H4.26C4.052 3.504 1.985 13.267 1 16h16.956c-.984-2.733-3.052-12.496-3.26-15zM9.479 16v9.783M14.044 16v5.217M16 31H2.955v-.652c0-1.083.874-1.957 1.957-1.957h9.13c1.083 0 1.957.874 1.957 1.957V31z" stroke="currentColor" stroke-width="1.5" stroke-linecap="round" stroke-linejoin="round"/><path d="M6.87 28.391v-.652c0-1.082.873-1.956 1.956-1.956h1.304c1.083 0 1.956.873 1.956 1.956v.652" stroke="currentColor" stroke-width="1.5" stroke-linecap="round" stroke-linejoin="round"/></svg><svg fill="none" viewBox="0 0 17 32" id="category-7" xmlns="http://www.w3.org/2000/svg"><path d="M8.174 10.13v1.957M15.348 27.74L9.152 12.086h-.978M1 27.74l6.196-15.653h.978M6.87 31l1.303-18.913M14.696 2.63c0-.9-2.922-1.63-6.522-1.63s-6.522.73-6.522 1.63V8.5c0 .9 2.922 1.63 6.522 1.63s6.522-.73 6.522-1.63V2.63z" stroke="currentColor" stroke-width="1.5" stroke-linecap="round" stroke-linejoin="round"/><path d="M14.696 2.957c0 .9-2.922 1.63-6.522 1.63s-6.522-.73-6.522-1.63" stroke="currentColor" stroke-width="1.5" stroke-linecap="round" stroke-linejoin="round"/></svg><svg fill="none" viewBox="0 0 32 28" id="category-8" xmlns="http://www.w3.org/2000/svg"><path d="M4.494 12.561V7.26c0-.558.328-1.06.844-1.283l11.37-4.918c.46-.202.976.14.976.642v5.161" stroke="currentColor" stroke-width="1.5" stroke-linecap="round" stroke-linejoin="round"/><path d="M12.627 11.368L9.14 9.192 13.1 7.476 16.59 9.66M19.533 23.428l1.102 2.567M15.139 23.798l-1.095 2.748M22.832 20.499l2.748 1.095M3.1 17.793c1.157.816 2.092 1.806 2.092 3.487v.349" stroke="currentColor" stroke-width="1.5" stroke-linecap="round" stroke-linejoin="round"/><path d="M26.117 5.537a1.4 1.4 0 011.326.119l1.464.976C30.066 7.448 31 8.355 31 10.12v2.225c0 .558-.328 1.06-.844 1.283l-24.26 10.49c-.439.19-.948.14-1.346-.132l-2.943-2.022A1.4 1.4 0 011 20.813v-3.495c0-.558.328-1.06.844-1.283L26.117 5.537v0z" stroke="currentColor" stroke-width="1.5" stroke-linecap="round" stroke-linejoin="round"/></svg><svg fill="none" viewBox="0 0 24 32" id="category-9" xmlns="http://www.w3.org/2000/svg"><path d="M14.695 10.783v3.913M20.565 21.217L17.305 31h-5.218l-3.26-9.783" stroke="currentColor" stroke-width="1.5" stroke-linecap="round" stroke-linejoin="round"/><path d="M2.956 1v13.043M1 2.957h22.174M19.437 6.42c-.183.463-.763.658-1.18.658-.62 0-1.768-.463-1.768-1.767a2.353 2.353 0 012.355-2.354c1.297 0 2.595.717 2.941 2.354.535 2.706-1.767 6.476-7.063 6.476-2.941 0-5.596-2.941-7.357-4.709-1.76-1.767-4.415-.587-4.415 1.18 0 1.768 1.265 2.107 1.924 1.977.652-.13 1.187-.874.835-1.592" stroke="currentColor" stroke-width="1.5" stroke-miterlimit="10" stroke-linecap="round"/><path d="M7.521 21.217H21.87M14.695 31v-9.783M8.826 21.217l1.957-3.26h7.826l1.956 3.26M12.087 17.956l1.304-3.26H16l1.304 3.26" stroke="currentColor" stroke-width="1.5" stroke-linecap="round" stroke-linejoin="round"/></svg><svg fill="none" viewBox="0 0 10 6" id="chevron" xmlns="http://www.w3.org/2000/svg"><path d="M1 1l4 4 4-4" stroke="currentColor" stroke-width="1.5" stroke-linecap="round" stroke-linejoin="round"/></svg><svg fill="none" viewBox="0 0 14 14" id="close" xmlns="http://www.w3.org/2000/svg"><path d="M1 1l12 12M13 1L1 13" stroke="currentColor" stroke-width="1.5" stroke-linecap="round" stroke-linejoin="round"/></svg><svg fill="none" viewBox="0 0 20 20" id="compare" xmlns="http://www.w3.org/2000/svg"><path d="M1.25 18.167v-5.834M7.083 18.167v-10.5M12.917 18.167V1.833M18.75 18.167V10" stroke="#131721" stroke-width="2" stroke-linecap="round" stroke-linejoin="round"/></svg><svg fill="none" viewBox="0 0 37 27" id="delivery" xmlns="http://www.w3.org/2000/svg"><path fill-rule="evenodd" clip-rule="evenodd" d="M2.087 1.969a2.453 2.453 0 00-.806.771c-.285.483-.293.743-.276 8.935.017 7.528.045 8.489.26 8.906.387.748.874.974 2.277 1.056l1.25.073.111.653c.161.95.812 1.905 1.648 2.422.635.393.847.444 1.84.444.994 0 1.205-.051 1.84-.444.837-.517 1.487-1.472 1.65-2.422l.11-.653h14.206l.111.653a3.512 3.512 0 003.264 2.913c1.91.121 3.478-1.13 3.735-2.98.08-.572.098-.588.754-.663.37-.043.847-.192 1.06-.331.78-.511.818-.745.864-5.327.038-3.74.014-4.286-.203-4.674-.265-.475-3.33-4.198-4.188-5.088-.712-.739-1.35-.85-4.883-.85h-2.925V4.329c0-1.12-.18-1.607-.804-2.192l-.393-.366-9.994-.039c-9.54-.037-10.018-.026-10.508.237zM22.253 3.23l.36.36v11.156H2.233V9.13c0-5.79.016-5.954.587-6.158.121-.043 4.462-.084 9.647-.09l9.426-.011.36.36zm8.529 3.929c.741.776 3.853 4.56 3.853 4.685 0 .064-2.441.117-5.424.117h-5.425V6.681h6.54l.456.477zm4 6.922v.8l-1.356.043c-1.29.04-1.359.059-1.404.38-.088.619.2.762 1.531.762h1.229v1.906c0 1.71-.03 1.936-.293 2.199-.181.18-.49.293-.803.293-.407 0-.552-.081-.72-.403-.268-.51-1.057-1.258-1.63-1.543-1.593-.793-3.636-.155-4.624 1.443l-.311.503h-2.615V13.28h10.996v.8zm-8.406.47c-.054.053-.098.482-.098.953v.855h1.32v-1.906h-.562c-.31 0-.606.044-.66.098zm-3.763 3.714v2.2H11.836l-.513-.692c-.649-.875-1.278-1.299-2.256-1.517-1.401-.314-2.946.386-3.76 1.705-.31.5-.319.503-1.4.503-1.282 0-1.673-.255-1.673-1.092v-.506l.827-.044c.928-.05 1.285-.343.99-.814-.116-.184-.394-.269-.99-.3l-.827-.044v-1.598H22.613v2.199zM9.319 19.638c.263.11.655.409.87.664 1.052 1.25.407 3.245-1.188 3.675a2.287 2.287 0 01-2.814-1.568c-.566-1.888 1.299-3.537 3.132-2.771zm21.652.13c.727.494 1.06 1.033 1.125 1.822.113 1.35-.918 2.45-2.298 2.45-1.917 0-3.016-2.29-1.795-3.741.75-.892 2.087-1.131 2.968-.531z" fill="#E30611"/><path d="M1.914 1.646h0c.334-.18.666-.244 2.025-.275 1.38-.03 3.89-.024 8.657-.005l9.995.038.144.001.105.098.392.367c.339.317.581.63.73 1.036.146.396.19.85.19 1.423v.667h2.559c1.757 0 2.834.027 3.562.154.37.064.667.157.926.295.26.138.464.312.66.514.44.457 1.43 1.622 2.335 2.72.454.553.89 1.093 1.23 1.525.33.418.594.768.678.918.153.274.215.582.244 1.243.028.665.025 1.747.006 3.613-.023 2.275-.043 3.516-.162 4.246-.06.373-.152.654-.31.882-.157.228-.358.371-.558.502h0a2.377 2.377 0 01-.563.245c-.21.066-.444.12-.656.144a3.832 3.832 0 00-.382.058c0 .002 0 .003-.002.005a2.532 2.532 0 00-.049.287c-.285 2.047-2.028 3.427-4.121 3.294l.023-.365-.023.365a3.879 3.879 0 01-3.602-3.216h0l-.06-.348H12.301l-.06.348h0c-.18 1.056-.893 2.101-1.816 2.672h0c-.325.2-.578.338-.893.414-.305.073-.647.085-1.14.085-.494 0-.836-.012-1.141-.085-.316-.076-.568-.213-.893-.414h0c-.923-.571-1.637-1.617-1.816-2.672h0l-.062-.366-.96-.056c-.706-.041-1.239-.12-1.652-.312-.438-.203-.709-.517-.928-.942-.083-.159-.132-.345-.168-.632-.035-.284-.06-.694-.078-1.312-.036-1.24-.047-3.367-.055-7.129h.366H.64C.63 7.584.628 5.463.663 4.306c.018-.577.046-.935.092-1.184a1.55 1.55 0 01.21-.568l.949-.908zm0 0c-.18.096-.368.244-.529.398m.529-.398l-.529.398m0 0a2.53 2.53 0 00-.42.51l.42-.51z" stroke="#E30611" stroke-width=".733"/></svg><svg viewBox="0 0 103 3" id="dotted" xmlns="http://www.w3.org/2000/svg"><path d="M1.5.5a1 1 0 100 2v-2zm100 2a1 1 0 000-2v2zm-100 0a1 1 0 000-2v2zm5.882-2a1 1 0 100 2v-2zm0 2a1 1 0 000-2v2zm5.883-2a1 1 0 100 2v-2zm0 2a1 1 0 000-2v2zm5.882-2a1 1 0 100 2v-2zm0 2a1 1 0 100-2v2zm5.882-2a1 1 0 100 2v-2zm0 2a1 1 0 000-2v2zm5.883-2a1 1 0 100 2v-2zm0 2a1 1 0 100-2v2zm5.882-2a1 1 0 100 2v-2zm0 2a1 1 0 000-2v2zm5.882-2a1 1 0 100 2v-2zm0 2a1 1 0 100-2v2zm5.883-2a1 1 0 100 2v-2zm0 2a1 1 0 100-2v2zm5.882-2a1 1 0 100 2v-2zm0 2a1 1 0 100-2v2zm5.882-2a1 1 0 100 2v-2zm0 2a1 1 0 100-2v2zm5.883-2a1 1 0 000 2v-2zm0 2a1 1 0 100-2v2zm5.882-2a1 1 0 100 2v-2zm0 2a1 1 0 100-2v2zm5.883-2a1 1 0 100 2v-2zm0 2a1 1 0 100-2v2zm5.882-2a1 1 0 100 2v-2zm0 2a1 1 0 100-2v2zm5.882-2a1 1 0 100 2v-2zm0 2a1 1 0 000-2v2zm5.883-2a1 1 0 100 2v-2zm0 2a1 1 0 100-2v2zm5.882-2a1 1 0 000 2v-2zm-100 2v-2 2zm5.882 0v-2 2zm5.883 0v-2 2zm5.882 0v-2 2zm5.882 0v-2 2zm5.883 0v-2 2zm5.882 0v-2 2zm5.882 0v-2 2zm5.883 0v-2 2zm5.882 0v-2 2zm5.882 0v-2 2zm5.883 0v-2 2zm5.882 0v-2 2zm5.883 0v-2 2zm5.882 0v-2 2zm5.882 0v-2 2zm5.883 0v-2 2zm5.882 0v-2 2z"/></svg><svg fill="none" viewBox="0 0 29 29" id="exchange" xmlns="http://www.w3.org/2000/svg"><path d="M28.049 9.365c-.182-.453-.68-.725-1.18-.544-.453.182-.725.68-.543 1.18 1.178 3.173 1.088 6.62-.318 9.703-1.406 3.084-3.9 5.442-7.074 6.62-3.174 1.18-6.62 1.089-9.704-.317a12.891 12.891 0 01-2.993-1.904c.726 0 1.542 0 2.358-.182a.885.885 0 00.726-1.043.885.885 0 00-1.043-.725c-1.633.272-3.22.045-4.127-.136a1.012 1.012 0 00-.952.09c-.09.091-.181.182-.227.318v.045c0 .046-.045.091-.045.136a1.105 1.105 0 000 .544c.227.771.771 2.993.544 4.354-.09.498.272.952.771 1.043h.136c.454 0 .816-.318.907-.771.09-.68.09-1.406 0-2.131a16.058 16.058 0 003.22 2.04A14.54 14.54 0 0014.49 29c1.723 0 3.446-.317 5.124-.952 3.628-1.36 6.485-4.081 8.117-7.573 1.542-3.537 1.678-7.482.318-11.11zM2.927 9.275C5.83 2.88 13.357.069 19.705 2.926c1.043.499 2.04 1.088 2.902 1.814-.725 0-1.542 0-2.313.181a.885.885 0 00-.725 1.043.885.885 0 001.043.726c1.768-.318 3.446-.045 4.308.181H25.373c.046 0 .09 0 .09-.045 0 0 .046 0 .046-.045.046 0 .046-.046.091-.046s.045-.045.09-.045h.046l.045-.045.046-.046c.045-.045.09-.136.136-.181.045-.046.045-.136.045-.182v-.045V5.964c0-.09 0-.136-.045-.226-.227-.726-.771-2.993-.544-4.354.09-.498-.273-.952-.771-1.043-.5-.09-.953.273-1.043.771-.09.68-.09 1.406 0 2.132a15.768 15.768 0 00-3.13-1.95c-7.3-3.31-15.916-.046-19.18 7.255C-.293 12.086-.43 16.031.932 19.66a.93.93 0 00.861.59c.091 0 .227 0 .318-.046.453-.181.725-.68.544-1.179-1.224-3.22-1.134-6.666.272-9.75z" fill="#E30611"/><path d="M11.407 24.964c.997.272 1.995.454 3.038.454 4.217 0 8.207-2.449 9.976-6.44 1.224-2.675 1.315-5.622.272-8.343a.626.626 0 00-.77-.363.626.626 0 00-.364.771 9.82 9.82 0 01-.226 7.437c-1.995 4.398-6.938 6.666-11.563 5.35-.318-.09-.68.091-.771.409-.091.317.09.635.408.725zM17.03 5.103c.317.09.634-.09.725-.408a.582.582 0 00-.408-.726C12.132 2.563 6.737 5.103 4.514 10c-1.224 2.675-1.315 5.623-.272 8.344.09.226.318.408.59.408.09 0 .136 0 .226-.045a.626.626 0 00.363-.771 9.82 9.82 0 01.227-7.437A9.613 9.613 0 0117.03 5.103z" fill="#E30611"/></svg><svg fill="none" viewBox="0 0 24 22" id="favorites" xmlns="http://www.w3.org/2000/svg"><path d="M16.317 1.667c3.733 0 6.183 3.5 6.183 6.766 0 6.534-10.267 11.9-10.5 11.9-.233 0-10.5-5.366-10.5-11.9 0-3.266 2.45-6.766 6.183-6.766 2.1 0 3.5 1.05 4.317 1.983.817-.933 2.217-1.983 4.317-1.983z" stroke="#131721" stroke-width="2" stroke-miterlimit="10" stroke-linecap="round" stroke-linejoin="round"/></svg><svg fill="none" viewBox="0 0 15 15" id="free-shipping" xmlns="http://www.w3.org/2000/svg"><path clip-rule="evenodd" d="M12.75 9.833V5.167c0-.409-.233-.817-.583-.992L8.142 1.842a1.06 1.06 0 00-1.167 0L2.95 4.175c-.35.233-.583.583-.583.992v4.666c0 .409.233.817.583.992l4.025 2.333c.35.234.817.234 1.167 0l4.025-2.333c.35-.175.583-.583.583-.992z" stroke="currentColor" stroke-width="1.2" stroke-miterlimit="10" stroke-linecap="round" stroke-linejoin="round"/><path d="M4.117 7.85l1.75 1.05M2.483 4.583L7.5 7.5l5.075-2.917M7.5 13.333V7.5M4.992 6.042l5.191-3.034" stroke="currentColor" stroke-width="1.2" stroke-miterlimit="10" stroke-linecap="round" stroke-linejoin="round"/></svg><svg fill="none" viewBox="0 0 15 15" id="led" xmlns="http://www.w3.org/2000/svg"><path d="M5.75 12.75h3.5M9.25 10.533v.642h-3.5v-.642c0-.642-.292-1.167-.758-1.575a3.975 3.975 0 01-1.4-2.858c-.117-2.159 1.691-4.084 3.85-4.142 2.216-.058 4.025 1.75 4.025 3.908A3.905 3.905 0 0110.008 8.9a2.17 2.17 0 00-.758 1.633zM5.458 9.483h4.084" stroke="currentColor" stroke-width="1.2" stroke-miterlimit="10" stroke-linecap="round" stroke-linejoin="round"/></svg><svg fill="none" viewBox="0 0 16 20" id="location" xmlns="http://www.w3.org/2000/svg"><path d="M8 11c-1.7 0-3-1.3-3-3s1.3-3 3-3 3 1.3 3 3-1.3 3-3 3z" stroke="#131721" stroke-width="1.5" stroke-linecap="round" stroke-linejoin="round"/><path d="M8 19S1 13.2 1 8c0-3.9 3.1-7 7-7s7 3.1 7 7c0 5.3-7 11-7 11z" stroke="#131721" stroke-width="1.5" stroke-miterlimit="10" stroke-linecap="round" stroke-linejoin="round"/></svg><svg fill="none" viewBox="0 0 15 15" id="moisture-protection" xmlns="http://www.w3.org/2000/svg"><path d="M7.5 8.083v3.5a1.17 1.17 0 001.167 1.167 1.17 1.17 0 001.166-1.167M7.5 3.417V2.25M2.25 8.083h10.5c-.175-1.341-.817-2.45-1.808-3.325C9.95 3.883 8.783 3.417 7.5 3.417c-1.342 0-2.45.466-3.442 1.341-.991.875-1.575 1.984-1.808 3.325z" stroke="currentColor" stroke-width="1.2" stroke-linecap="round" stroke-linejoin="round"/></svg><svg viewBox="0 0 473.806 473.806" id="phone" xmlns="http://www.w3.org/2000/svg"><g><path d="M374.456 293.506c-9.7-10.1-21.4-15.5-33.8-15.5-12.3 0-24.1 5.3-34.2 15.4l-31.6 31.5c-2.6-1.4-5.2-2.7-7.7-4-3.6-1.8-7-3.5-9.9-5.3-29.6-18.8-56.5-43.3-82.3-75-12.5-15.8-20.9-29.1-27-42.6 8.2-7.5 15.8-15.3 23.2-22.8 2.8-2.8 5.6-5.7 8.4-8.5 21-21 21-48.2 0-69.2l-27.3-27.3c-3.1-3.1-6.3-6.3-9.3-9.5-6-6.2-12.3-12.6-18.8-18.6-9.7-9.6-21.3-14.7-33.5-14.7s-24 5.1-34 14.7l-.2.2-34 34.3c-12.8 12.8-20.1 28.4-21.7 46.5-2.4 29.2 6.2 56.4 12.8 74.2 16.2 43.7 40.4 84.2 76.5 127.6 43.8 52.3 96.5 93.6 156.7 122.7 23 10.9 53.7 23.8 88 26 2.1.1 4.3.2 6.3.2 23.1 0 42.5-8.3 57.7-24.8.1-.2.3-.3.4-.5 5.2-6.3 11.2-12 17.5-18.1 4.3-4.1 8.7-8.4 13-12.9 9.9-10.3 15.1-22.3 15.1-34.6 0-12.4-5.3-24.3-15.4-34.3l-54.9-55.1zm35.8 105.3c-.1 0-.1.1 0 0-3.9 4.2-7.9 8-12.2 12.2-6.5 6.2-13.1 12.7-19.3 20-10.1 10.8-22 15.9-37.6 15.9-1.5 0-3.1 0-4.6-.1-29.7-1.9-57.3-13.5-78-23.4-56.6-27.4-106.3-66.3-147.6-115.6-34.1-41.1-56.9-79.1-72-119.9-9.3-24.9-12.7-44.3-11.2-62.6 1-11.7 5.5-21.4 13.8-29.7l34.1-34.1c4.9-4.6 10.1-7.1 15.2-7.1 6.3 0 11.4 3.8 14.6 7l.3.3c6.1 5.7 11.9 11.6 18 17.9 3.1 3.2 6.3 6.4 9.5 9.7l27.3 27.3c10.6 10.6 10.6 20.4 0 31-2.9 2.9-5.7 5.8-8.6 8.6-8.4 8.6-16.4 16.6-25.1 24.4-.2.2-.4.3-.5.5-8.6 8.6-7 17-5.2 22.7l.3.9c7.1 17.2 17.1 33.4 32.3 52.7l.1.1c27.6 34 56.7 60.5 88.8 80.8 4.1 2.6 8.3 4.7 12.3 6.7 3.6 1.8 7 3.5 9.9 5.3.4.2.8.5 1.2.7 3.4 1.7 6.6 2.5 9.9 2.5 8.3 0 13.5-5.2 15.2-6.9l34.2-34.2c3.4-3.4 8.8-7.5 15.1-7.5 6.2 0 11.3 3.9 14.4 7.3l.2.2 55.1 55.1c10.3 10.2 10.3 20.7.1 31.3zM256.056 112.706c26.2 4.4 50 16.8 69 35.8s31.3 42.8 35.8 69c1.1 6.6 6.8 11.2 13.3 11.2.8 0 1.5-.1 2.3-.2 7.4-1.2 12.3-8.2 11.1-15.6-5.4-31.7-20.4-60.6-43.3-83.5s-51.8-37.9-83.5-43.3c-7.4-1.2-14.3 3.7-15.6 11s3.5 14.4 10.9 15.6zM473.256 209.006c-8.9-52.2-33.5-99.7-71.3-137.5s-85.3-62.4-137.5-71.3c-7.3-1.3-14.2 3.7-15.5 11-1.2 7.4 3.7 14.3 11.1 15.6 46.6 7.9 89.1 30 122.9 63.7 33.8 33.8 55.8 76.3 63.7 122.9 1.1 6.6 6.8 11.2 13.3 11.2.8 0 1.5-.1 2.3-.2 7.3-1.1 12.3-8.1 11-15.4z"/></g></svg><svg fill="none" viewBox="0 0 18 18" id="prod-cart" xmlns="http://www.w3.org/2000/svg"><path d="M4.5 4.95L3.975 2.7H2.55M5.85 11.1L4.5 4.95h9.525c.45 0 .825.45.75.9L13.65 11.1c-.075.375-.375.6-.75.6H6.6c-.375 0-.675-.225-.75-.6z" stroke="currentColor" stroke-width="1.5" stroke-miterlimit="10" stroke-linecap="round" stroke-linejoin="round"/><path d="M12.504 14.475c-.483 0-.965.482-.965.964s.482.965.965.965c.482 0 .964-.483.964-.965 0-.723-.482-.964-.964-.964zM6.696 14.475c-.482 0-.964.482-.964.964s.482.965.964.965c.483 0 .965-.483.965-.965 0-.723-.482-.964-.965-.964z" fill="currentColor"/></svg><svg fill="none" viewBox="0 0 14 12" id="prod-compare" xmlns="http://www.w3.org/2000/svg"><path d="M1.375 11.25V7.5M5.125 11.25V4.5M8.875 11.25V.75M12.625 11.25V6" stroke="currentColor" stroke-width="1.5" stroke-linecap="round" stroke-linejoin="round"/></svg><svg viewBox="0 0 16 14" id="prod-favorite" xmlns="http://www.w3.org/2000/svg"><path d="M10.775 1c2.4 0 3.975 2.25 3.975 4.35C14.75 9.55 8.15 13 8 13c-.15 0-6.75-3.45-6.75-7.65C1.25 3.25 2.825 1 5.225 1c1.35 0 2.25.675 2.775 1.275C8.525 1.675 9.425 1 10.775 1z" stroke="currentColor" stroke-width="1.5" stroke-miterlimit="10" stroke-linecap="round" stroke-linejoin="round"/></svg><svg fill="none" viewBox="0 0 22 23" id="question" xmlns="http://www.w3.org/2000/svg"><path d="M11 20.375A7.842 7.842 0 013.125 12.5c0-4.375 3.5-7.875 7.875-7.875s7.875 3.5 7.875 7.875-3.5 7.875-7.875 7.875z" stroke="currentColor" stroke-width="1.5" stroke-linecap="round" stroke-linejoin="round"/><path d="M11 13.638v-.263c0-.7.438-1.137.875-1.4.438-.262.875-.7.875-1.4 0-.962-.787-1.75-1.75-1.75s-1.75.788-1.75 1.75" stroke="currentColor" stroke-width="1.5" stroke-linecap="round" stroke-linejoin="round"/><path d="M10.944 16c-.24 0-.718.25-.479.75 0 .25.24.75.718.75s.717-.25.717-.75-.717-.75-.956-.75z" fill="currentColor"/></svg><svg fill="none" viewBox="0 0 20 20" id="search" xmlns="http://www.w3.org/2000/svg"><path d="M9.183 16.534a7.35 7.35 0 100-14.7 7.35 7.35 0 000 14.7zM18.167 18.167l-3.85-3.85" stroke="#131721" stroke-width="2" stroke-linecap="round" stroke-linejoin="round"/></svg><svg fill="none" viewBox="0 0 15 12" id="smart-house" xmlns="http://www.w3.org/2000/svg"><path d="M7.5 9.75a3.125 3.125 0 100-6.25 3.125 3.125 0 000 6.25zM7.5 6.625L5.313 8.812" stroke="currentColor" stroke-width="1.2" stroke-linecap="round" stroke-linejoin="round"/><path d="M11.563 2.813a.25.25 0 100-.5.25.25 0 000 .5zM3.5 10.937a.25.25 0 100-.5.25.25 0 000 .5zM13.188 6.875a.25.25 0 100-.5.25.25 0 000 .5zM1.813 6.875a.25.25 0 100-.5.25.25 0 000 .5zM11.563 10.937a.25.25 0 100-.5.25.25 0 000 .5zM3.5 2.813a.25.25 0 100-.5.25.25 0 000 .5zM7.5 1.187a.25.25 0 100-.5.25.25 0 000 .5z" fill="currentColor" stroke="currentColor" stroke-width="1.2" stroke-linecap="round" stroke-linejoin="round"/></svg><svg fill="none" viewBox="0 0 29 29" id="socket" xmlns="http://www.w3.org/2000/svg"><path fill-rule="evenodd" clip-rule="evenodd" d="M5.438 0A5.438 5.438 0 000 5.438v18.124A5.438 5.438 0 005.438 29h18.124A5.438 5.438 0 0029 23.562V5.438A5.438 5.438 0 0023.562 0H5.438zM1.813 23.562V5.438a3.626 3.626 0 013.625-3.625h18.124a3.626 3.626 0 013.625 3.625v18.124a3.625 3.625 0 01-3.625 3.625H5.438a3.625 3.625 0 01-3.625-3.625zM3.625 8.158a4.531 4.531 0 014.533-4.533h12.684a4.531 4.531 0 014.533 4.533v12.684a4.531 4.531 0 01-4.533 4.533H8.158a4.531 4.531 0 01-4.533-4.533V8.158zm.906 12.684V8.158a3.625 3.625 0 013.627-3.627h12.684a3.625 3.625 0 013.627 3.627v12.684a3.625 3.625 0 01-3.627 3.627H8.158a3.625 3.625 0 01-3.627-3.627zm9.969 1.814a8.156 8.156 0 110-16.312 8.156 8.156 0 010 16.312zm7.25-8.156a7.25 7.25 0 11-14.5 0 7.25 7.25 0 0114.5 0zm-9.969 1.813a1.812 1.812 0 110-3.625 1.812 1.812 0 010 3.624zm.906-1.813a.906.906 0 11-1.812 0 .906.906 0 011.813 0zm4.532 1.813a1.812 1.812 0 110-3.625 1.812 1.812 0 010 3.624zm.906-1.813a.906.906 0 11-1.812 0 .906.906 0 011.812 0z" fill="#E30611"/></svg><svg viewBox="0 0 14 13" id="star" xmlns="http://www.w3.org/2000/svg"><path d="M7 1.192l1.692 3.5 3.85.583L9.8 7.958l.642 3.85L7 10l-3.442 1.808.7-3.85-2.8-2.683 3.85-.583L7 1.192z" stroke="currentColor" stroke-width="1.2" stroke-miterlimit="10" stroke-linecap="round" stroke-linejoin="round"/></svg><svg viewBox="0 0 14 11" id="star-2" xmlns="http://www.w3.org/2000/svg"><path d="M7.054 0l1.964 3.529 4.269.622-3.054 2.804.673 3.913-3.852-1.796-3.852 1.796.673-3.913L.821 4.15l4.268-.622L7.054 0z" fill="currentColor"/></svg><svg fill="none" viewBox="0 0 20 20" id="stop" xmlns="http://www.w3.org/2000/svg"><path d="M5.4 18.437l-3.8-3.8c-.4-.4-.6-.9-.6-1.4v-6.4c0-.5.2-1 .6-1.4l3.8-3.8c.4-.4.9-.6 1.4-.6h6.3c.5 0 1 .2 1.4.6l3.8 3.8c.4.4.6.9.6 1.4v6.3c0 .5-.2 1-.6 1.4l-4.4 4.4H6.7c-.4.1-.9-.1-1.3-.5zM7 13.037l6-6M13 13.037l-6-6" stroke="#E30611" stroke-width="1.7" stroke-linecap="round" stroke-linejoin="round"/></svg><svg viewBox="0 0 24 24" id="telegramm" xmlns="http://www.w3.org/2000/svg"><circle opacity=".7" cx="12" cy="12" r="12"/><path d="M5.61 12.225l2.76 1.028 1.075 3.46c.047.234.327.281.514.14l1.543-1.262c.14-.14.374-.14.561 0l2.76 2.01c.186.141.467.048.514-.186l2.057-9.82c.047-.234-.187-.467-.42-.374L5.61 11.617c-.28.093-.28.514 0 .607zm3.695.514l5.424-3.32c.093-.047.187.093.093.14l-4.442 4.162c-.14.14-.28.327-.28.56l-.14 1.123c0 .14-.235.187-.281 0l-.562-2.057c-.14-.234-.046-.515.188-.608z" fill="#fff"/></svg><svg fill="none" viewBox="0 0 3 18" id="vertical-more" xmlns="http://www.w3.org/2000/svg"><path opacity=".7" d="M1.5 3.5a1.5 1.5 0 100-3 1.5 1.5 0 000 3zM1.5 10.5a1.5 1.5 0 100-3 1.5 1.5 0 000 3zM1.5 17.5a1.5 1.5 0 100-3 1.5 1.5 0 000 3z" fill="#969FA8"/></svg><svg fill="none" viewBox="0 0 25 29" id="warranty" xmlns="http://www.w3.org/2000/svg"><path d="M11.903 29c-.087 0-.043 0-.13-.043C11.297 28.827 0 25.32 0 18.006V5.626c0-.475.26-.865.736-.865C2.9 4.761 4.588 2.987 4.63.866c0-.476.347-.866.823-.866h12.855c.476 0 .866.39.866.866.043 2.164 1.947 3.895 4.068 3.895.476 0 .996.39.996.866v12.379c0 6.406-11.427 10.778-11.947 10.95-.086.044-.303.044-.389.044zM1.731 6.406v11.6c0 5.497 8.7 8.657 10.388 9.22 3.16-1.256 10.389-5.021 10.389-9.22v-11.6c-2.598-.39-4.589-2.12-4.978-4.718H6.276c-.433 2.64-2.38 4.372-4.545 4.718z" fill="#E30611"/><path d="M7.618 23.676c-.087 0-.13 0-.173-.043-1.645-.822-2.944-2.034-3.723-3.42-.13-.216-.043-.476.174-.605.216-.13.476-.044.605.173.693 1.255 1.862 2.337 3.333 3.073.217.086.303.346.173.563-.086.173-.216.26-.39.26zM3.333 18.612c-.173 0-.346-.13-.433-.303a6.527 6.527 0 01-.13-.433.475.475 0 01.346-.52.475.475 0 01.52.347s.043.13.086.346c.087.217-.086.476-.303.52 0 .043-.043.043-.086.043zM12.12 28.134c-.26 0-.433-.173-.433-.432V.866c0-.26.173-.433.433-.433s.432.173.432.433v26.836a.465.465 0 01-.432.432z" fill="#E30611"/><path d="M23.113 14.933H.606c-.26 0-.433-.173-.433-.433s.173-.433.433-.433h22.507c.26 0 .433.173.433.433a.434.434 0 01-.433.433z" fill="#E30611"/></svg><svg viewBox="0 0 24 24" id="watsapp" xmlns="http://www.w3.org/2000/svg"><circle opacity=".7" cx="12" cy="12" r="12"/><path d="M16.756 7.237A6.257 6.257 0 0012.322 5.4c-3.468 0-6.278 2.8-6.278 6.256 0 1.094.307 2.188.834 3.106L6 18l3.337-.875a6.42 6.42 0 002.985.744c3.468 0 6.278-2.8 6.278-6.256-.044-1.62-.659-3.194-1.844-4.376zm-1.405 6.65c-.132.35-.746.7-1.053.744a2.461 2.461 0 01-.966-.043c-.22-.088-.527-.175-.878-.35-1.58-.657-2.59-2.232-2.678-2.363-.088-.088-.659-.831-.659-1.619 0-.787.395-1.137.527-1.312.132-.175.307-.175.439-.175h.307c.088 0 .22-.044.351.262.132.306.44 1.094.483 1.138a.278.278 0 010 .262.915.915 0 01-.175.263c-.088.087-.176.218-.22.262-.088.088-.175.175-.088.306.088.175.396.657.879 1.094.614.525 1.097.7 1.273.788.175.087.263.043.35-.044.089-.088.396-.438.484-.612.088-.175.22-.132.351-.088.132.044.922.438 1.054.525.175.087.263.131.307.175.044.131.044.438-.088.787z" fill="#fff"/></svg></svg>