<?xml version="1.0" encoding="utf-8"?><svg viewBox="0 0 512 512" xmlns="http://www.w3.org/2000/svg" xmlns:xlink="http://www.w3.org/1999/xlink"><style>:root>svg{display:none}:root>svg:target{display:block}</style><svg fill="none" viewBox="0 0 22 23" id="cart" xmlns="http://www.w3.org/2000/svg"><path d="M5 4.7l-.817-3.5H1.967M7.1 14.267L5 4.7h14.817c.7 0 1.283.7 1.166 1.4l-1.75 8.167c-.116.583-.583.933-1.166.933h-9.8c-.584 0-1.05-.35-1.167-.933z" stroke="#131721" stroke-width="2" stroke-miterlimit="10" stroke-linecap="round" stroke-linejoin="round"/><path d="M17.45 19.517c-.75 0-1.5.75-1.5 1.5s.75 1.5 1.5 1.5 1.5-.75 1.5-1.5c0-1.125-.75-1.5-1.5-1.5zM8.417 19.517c-.75 0-1.5.75-1.5 1.5s.75 1.5 1.5 1.5 1.5-.75 1.5-1.5c0-1.125-.75-1.5-1.5-1.5z" fill="#131721"/></svg><svg fill="none" viewBox="0 0 19 14" id="catalog" xmlns="http://www.w3.org/2000/svg"><path d="M6 1h12M1 1h1M1 7h1M1 13h1M6 7h12M6 13h12" stroke="#fff" stroke-width="2" stroke-linecap="round" stroke-linejoin="round"/></svg><svg fill="none" viewBox="0 0 32 28" id="category-1" xmlns="http://www.w3.org/2000/svg"><path d="M8.826 19.26H1l1.304-7.825h5.218l1.304 7.826z" stroke="currentColor" stroke-width="1.5" stroke-linecap="round" stroke-linejoin="round"/><path d="M6.87 19.26v1.957c0 .718-.588 1.305-1.305 1.305H4.26a1.308 1.308 0 01-1.304-1.305v-1.956M16 22.522V4.26" stroke="currentColor" stroke-width="1.5" stroke-linecap="round" stroke-linejoin="round"/><path d="M16 22.522c0 2.158-2.485 3.913-5.543 3.913-3.06 0-5.544-1.755-5.544-3.913M6.218 8.826h5.217l1.304 7.826h-1.956M13.365 23.122c-1.63-.202-2.994-.92-3.796-1.898M23.174 19.26H31l-1.304-7.825h-5.218l-1.304 7.826z" stroke="currentColor" stroke-width="1.5" stroke-linecap="round" stroke-linejoin="round"/><path d="M25.13 19.26v1.957c0 .718.588 1.305 1.305 1.305h1.305c.717 0 1.304-.587 1.304-1.305v-1.956" stroke="currentColor" stroke-width="1.5" stroke-linecap="round" stroke-linejoin="round"/><path d="M16 22.522c0 2.158 2.485 3.913 5.544 3.913 3.058 0 5.543-1.755 5.543-3.913M25.782 8.826h-5.217l-1.304 7.826h1.956M18.635 23.122c1.63-.202 2.993-.92 3.795-1.898M10.782 1v1.304c0 1.083 2.335 1.957 5.218 1.957 2.882 0 5.217-.874 5.217-1.957V1H10.782z" stroke="currentColor" stroke-width="1.5" stroke-linecap="round" stroke-linejoin="round"/></svg><svg fill="none" viewBox="0 0 32 25" id="category-2" xmlns="http://www.w3.org/2000/svg"><path d="M1 10.546v-3.41C1 3.748 7.716 1 16 1c8.284 0 15 2.748 15 6.136v3.41" stroke="currentColor" stroke-width="1.5" stroke-linecap="round" stroke-linejoin="round"/><path d="M21.72 7.94c1.924.628 3.144 1.562 3.144 2.605 0 1.882-3.968 3.41-8.864 3.41-4.895 0-8.863-1.528-8.863-3.41 0-1.881 3.968-3.409 8.863-3.409.866 0 1.698.048 2.489.137" stroke="currentColor" stroke-width="1.5" stroke-linecap="round" stroke-linejoin="round"/><path d="M25.245 5.711C28.75 6.836 31 8.581 31 10.546c0 3.388-6.716 6.136-15 6.136-8.284 0-15-2.748-15-6.136 0-3.39 6.716-6.137 15-6.137 1.596 0 3.13.102 4.575.293M16 21.455v2.727M11.909 20.09l-2.046 2.046M20.09 20.09l2.046 2.046" stroke="currentColor" stroke-width="1.5" stroke-linecap="round" stroke-linejoin="round"/></svg><svg fill="none" viewBox="0 0 19 32" id="category-3" xmlns="http://www.w3.org/2000/svg"><path d="M9.479 10.13V4.26M4.26 1v1.304c0 1.083 2.336 1.957 5.218 1.957 2.883 0 5.217-.874 5.217-1.957V1H4.261zM6.87 12.498v-.411c0-1.083 1.167-1.957 2.608-1.957s2.608.874 2.608 1.957v.41M9.478 31a8.478 8.478 0 100-16.956 8.478 8.478 0 000 16.956zM3.608 22.522a5.877 5.877 0 013.574-5.407" stroke="currentColor" stroke-width="1.5" stroke-linecap="round" stroke-linejoin="round"/></svg><svg fill="none" viewBox="0 0 32 19" id="category-4" xmlns="http://www.w3.org/2000/svg"><path d="M8.3 17.162c-.965-.808-.907-2.47.136-3.714 1.043-1.239 2.666-1.59 3.63-.782M17.423 17.162c-.964-.808-.905-2.47.137-3.714 1.043-1.239 2.666-1.59 3.63-.782M14.685 10.776V1M5.562 10.776V1M1 1h27.372" stroke="currentColor" stroke-width="1.5" stroke-linecap="round" stroke-linejoin="round"/><path d="M14.719 14.895a1313.3 1313.3 0 012.704 2.267c.965.809 2.594.463 3.63-.782 1.043-1.238 1.102-2.9.137-3.714l-4.457-3.741M14.686 7.341c-.958-.365-2.242.046-3.116 1.088-.169.203-.319.424-.436.646M26.547 17.162c-.964-.808-.905-2.47.137-3.714 1.043-1.239 2.666-1.59 3.63-.782M23.81 10.776V1" stroke="currentColor" stroke-width="1.5" stroke-linecap="round" stroke-linejoin="round"/><path d="M23.843 14.895c1.238 1.036 2.411 2.02 2.704 2.267.965.809 2.594.463 3.63-.782 1.043-1.238 1.102-2.9.137-3.714l-4.457-3.741M23.81 7.341c-.958-.365-2.242.046-3.115 1.088-.17.203-.32.424-.437.646M5.562 7.341c-.958-.371-2.242.046-3.115 1.082-1.043 1.238-1.101 2.9-.137 3.715.639.534 5.35 4.49 5.99 5.024.964.809 2.593.463 3.63-.782 1.042-1.238 1.1-2.9.136-3.714L7.61 8.925" stroke="currentColor" stroke-width="1.5" stroke-linecap="round" stroke-linejoin="round"/></svg><svg fill="none" viewBox="0 0 32 22" id="category-5" xmlns="http://www.w3.org/2000/svg"><path d="M17.956 17.304l4.187 1.18c2.113.705 4.291-.867 4.291-3.09v-.692M23.174 1h6.521L31 12.087h-9.13L23.172 1zM12.74 15.348v-4.565h6.521v4.565M19.261 19.913v1.304h-6.522v-1.304M24.479 12.087v1.565c0 .574.587 1.044 1.304 1.044h1.304c.718 0 1.305-.47 1.305-1.044v-1.565M14.044 17.304l-4.187 1.18c-2.113.705-4.292-.867-4.292-3.09v-.692M8.826 1H2.304L1 12.087h9.13L8.826 1zM7.521 12.087v1.565c0 .574-.587 1.044-1.304 1.044H4.913c-.718 0-1.305-.47-1.305-1.044v-1.565" stroke="currentColor" stroke-width="1.5" stroke-linecap="round" stroke-linejoin="round"/></svg><svg fill="none" viewBox="0 0 19 32" id="category-6" xmlns="http://www.w3.org/2000/svg"><path d="M14.696 1H4.26C4.052 3.504 1.985 13.267 1 16h16.956c-.984-2.733-3.052-12.496-3.26-15zM9.479 16v9.783M14.044 16v5.217M16 31H2.955v-.652c0-1.083.874-1.957 1.957-1.957h9.13c1.083 0 1.957.874 1.957 1.957V31z" stroke="currentColor" stroke-width="1.5" stroke-linecap="round" stroke-linejoin="round"/><path d="M6.87 28.391v-.652c0-1.082.873-1.956 1.956-1.956h1.304c1.083 0 1.956.873 1.956 1.956v.652" stroke="currentColor" stroke-width="1.5" stroke-linecap="round" stroke-linejoin="round"/></svg><svg fill="none" viewBox="0 0 17 32" id="category-7" xmlns="http://www.w3.org/2000/svg"><path d="M8.174 10.13v1.957M15.348 27.74L9.152 12.086h-.978M1 27.74l6.196-15.653h.978M6.87 31l1.303-18.913M14.696 2.63c0-.9-2.922-1.63-6.522-1.63s-6.522.73-6.522 1.63V8.5c0 .9 2.922 1.63 6.522 1.63s6.522-.73 6.522-1.63V2.63z" stroke="currentColor" stroke-width="1.5" stroke-linecap="round" stroke-linejoin="round"/><path d="M14.696 2.957c0 .9-2.922 1.63-6.522 1.63s-6.522-.73-6.522-1.63" stroke="currentColor" stroke-width="1.5" stroke-linecap="round" stroke-linejoin="round"/></svg><svg fill="none" viewBox="0 0 32 28" id="category-8" xmlns="http://www.w3.org/2000/svg"><path d="M4.494 12.561V7.26c0-.558.328-1.06.844-1.283l11.37-4.918c.46-.202.976.14.976.642v5.161" stroke="currentColor" stroke-width="1.5" stroke-linecap="round" stroke-linejoin="round"/><path d="M12.627 11.368L9.14 9.192 13.1 7.476 16.59 9.66M19.533 23.428l1.102 2.567M15.139 23.798l-1.095 2.748M22.832 20.499l2.748 1.095M3.1 17.793c1.157.816 2.092 1.806 2.092 3.487v.349" stroke="currentColor" stroke-width="1.5" stroke-linecap="round" stroke-linejoin="round"/><path d="M26.117 5.537a1.4 1.4 0 011.326.119l1.464.976C30.066 7.448 31 8.355 31 10.12v2.225c0 .558-.328 1.06-.844 1.283l-24.26 10.49c-.439.19-.948.14-1.346-.132l-2.943-2.022A1.4 1.4 0 011 20.813v-3.495c0-.558.328-1.06.844-1.283L26.117 5.537v0z" stroke="currentColor" stroke-width="1.5" stroke-linecap="round" stroke-linejoin="round"/></svg><svg fill="none" viewBox="0 0 24 32" id="category-9" xmlns="http://www.w3.org/2000/svg"><path d="M14.695 10.783v3.913M20.565 21.217L17.305 31h-5.218l-3.26-9.783" stroke="currentColor" stroke-width="1.5" stroke-linecap="round" stroke-linejoin="round"/><path d="M2.956 1v13.043M1 2.957h22.174M19.437 6.42c-.183.463-.763.658-1.18.658-.62 0-1.768-.463-1.768-1.767a2.353 2.353 0 012.355-2.354c1.297 0 2.595.717 2.941 2.354.535 2.706-1.767 6.476-7.063 6.476-2.941 0-5.596-2.941-7.357-4.709-1.76-1.767-4.415-.587-4.415 1.18 0 1.768 1.265 2.107 1.924 1.977.652-.13 1.187-.874.835-1.592" stroke="currentColor" stroke-width="1.5" stroke-miterlimit="10" stroke-linecap="round"/><path d="M7.521 21.217H21.87M14.695 31v-9.783M8.826 21.217l1.957-3.26h7.826l1.956 3.26M12.087 17.956l1.304-3.26H16l1.304 3.26" stroke="currentColor" stroke-width="1.5" stroke-linecap="round" stroke-linejoin="round"/></svg><svg fill="none" viewBox="0 0 10 6" id="chevron" xmlns="http://www.w3.org/2000/svg"><path d="M1 1l4 4 4-4" stroke="currentColor" stroke-width="1.5" stroke-linecap="round" stroke-linejoin="round"/></svg><svg fill="none" viewBox="0 0 14 14" id="close" xmlns="http://www.w3.org/2000/svg"><path d="M1 1l12 12M13 1L1 13" stroke="currentColor" stroke-width="1.5" stroke-linecap="round" stroke-linejoin="round"/></svg><svg fill="none" viewBox="0 0 20 20" id="compare" xmlns="http://www.w3.org/2000/svg"><path d="M1.25 18.167v-5.834M7.083 18.167v-10.5M12.917 18.167V1.833M18.75 18.167V10" stroke="#131721" stroke-width="2" stroke-linecap="round" stroke-linejoin="round"/></svg><svg viewBox="0 0 103 3" id="dotted" xmlns="http://www.w3.org/2000/svg"><path d="M1.5.5a1 1 0 100 2v-2zm100 2a1 1 0 000-2v2zm-100 0a1 1 0 000-2v2zm5.882-2a1 1 0 100 2v-2zm0 2a1 1 0 000-2v2zm5.883-2a1 1 0 100 2v-2zm0 2a1 1 0 000-2v2zm5.882-2a1 1 0 100 2v-2zm0 2a1 1 0 100-2v2zm5.882-2a1 1 0 100 2v-2zm0 2a1 1 0 000-2v2zm5.883-2a1 1 0 100 2v-2zm0 2a1 1 0 100-2v2zm5.882-2a1 1 0 100 2v-2zm0 2a1 1 0 000-2v2zm5.882-2a1 1 0 100 2v-2zm0 2a1 1 0 100-2v2zm5.883-2a1 1 0 100 2v-2zm0 2a1 1 0 100-2v2zm5.882-2a1 1 0 100 2v-2zm0 2a1 1 0 100-2v2zm5.882-2a1 1 0 100 2v-2zm0 2a1 1 0 100-2v2zm5.883-2a1 1 0 000 2v-2zm0 2a1 1 0 100-2v2zm5.882-2a1 1 0 100 2v-2zm0 2a1 1 0 100-2v2zm5.883-2a1 1 0 100 2v-2zm0 2a1 1 0 100-2v2zm5.882-2a1 1 0 100 2v-2zm0 2a1 1 0 100-2v2zm5.882-2a1 1 0 100 2v-2zm0 2a1 1 0 000-2v2zm5.883-2a1 1 0 100 2v-2zm0 2a1 1 0 100-2v2zm5.882-2a1 1 0 000 2v-2zm-100 2v-2 2zm5.882 0v-2 2zm5.883 0v-2 2zm5.882 0v-2 2zm5.882 0v-2 2zm5.883 0v-2 2zm5.882 0v-2 2zm5.882 0v-2 2zm5.883 0v-2 2zm5.882 0v-2 2zm5.882 0v-2 2zm5.883 0v-2 2zm5.882 0v-2 2zm5.883 0v-2 2zm5.882 0v-2 2zm5.882 0v-2 2zm5.883 0v-2 2zm5.882 0v-2 2z"/></svg><svg fill="none" viewBox="0 0 24 22" id="favorites" xmlns="http://www.w3.org/2000/svg"><path d="M16.317 1.667c3.733 0 6.183 3.5 6.183 6.766 0 6.534-10.267 11.9-10.5 11.9-.233 0-10.5-5.366-10.5-11.9 0-3.266 2.45-6.766 6.183-6.766 2.1 0 3.5 1.05 4.317 1.983.817-.933 2.217-1.983 4.317-1.983z" stroke="#131721" stroke-width="2" stroke-miterlimit="10" stroke-linecap="round" stroke-linejoin="round"/></svg><svg fill="none" viewBox="0 0 16 20" id="location" xmlns="http://www.w3.org/2000/svg"><path d="M8 11c-1.7 0-3-1.3-3-3s1.3-3 3-3 3 1.3 3 3-1.3 3-3 3z" stroke="#131721" stroke-width="1.5" stroke-linecap="round" stroke-linejoin="round"/><path d="M8 19S1 13.2 1 8c0-3.9 3.1-7 7-7s7 3.1 7 7c0 5.3-7 11-7 11z" stroke="#131721" stroke-width="1.5" stroke-miterlimit="10" stroke-linecap="round" stroke-linejoin="round"/></svg><svg viewBox="0 0 473.806 473.806" id="phone" xmlns="http://www.w3.org/2000/svg"><g><path d="M374.456 293.506c-9.7-10.1-21.4-15.5-33.8-15.5-12.3 0-24.1 5.3-34.2 15.4l-31.6 31.5c-2.6-1.4-5.2-2.7-7.7-4-3.6-1.8-7-3.5-9.9-5.3-29.6-18.8-56.5-43.3-82.3-75-12.5-15.8-20.9-29.1-27-42.6 8.2-7.5 15.8-15.3 23.2-22.8 2.8-2.8 5.6-5.7 8.4-8.5 21-21 21-48.2 0-69.2l-27.3-27.3c-3.1-3.1-6.3-6.3-9.3-9.5-6-6.2-12.3-12.6-18.8-18.6-9.7-9.6-21.3-14.7-33.5-14.7s-24 5.1-34 14.7l-.2.2-34 34.3c-12.8 12.8-20.1 28.4-21.7 46.5-2.4 29.2 6.2 56.4 12.8 74.2 16.2 43.7 40.4 84.2 76.5 127.6 43.8 52.3 96.5 93.6 156.7 122.7 23 10.9 53.7 23.8 88 26 2.1.1 4.3.2 6.3.2 23.1 0 42.5-8.3 57.7-24.8.1-.2.3-.3.4-.5 5.2-6.3 11.2-12 17.5-18.1 4.3-4.1 8.7-8.4 13-12.9 9.9-10.3 15.1-22.3 15.1-34.6 0-12.4-5.3-24.3-15.4-34.3l-54.9-55.1zm35.8 105.3c-.1 0-.1.1 0 0-3.9 4.2-7.9 8-12.2 12.2-6.5 6.2-13.1 12.7-19.3 20-10.1 10.8-22 15.9-37.6 15.9-1.5 0-3.1 0-4.6-.1-29.7-1.9-57.3-13.5-78-23.4-56.6-27.4-106.3-66.3-147.6-115.6-34.1-41.1-56.9-79.1-72-119.9-9.3-24.9-12.7-44.3-11.2-62.6 1-11.7 5.5-21.4 13.8-29.7l34.1-34.1c4.9-4.6 10.1-7.1 15.2-7.1 6.3 0 11.4 3.8 14.6 7l.3.3c6.1 5.7 11.9 11.6 18 17.9 3.1 3.2 6.3 6.4 9.5 9.7l27.3 27.3c10.6 10.6 10.6 20.4 0 31-2.9 2.9-5.7 5.8-8.6 8.6-8.4 8.6-16.4 16.6-25.1 24.4-.2.2-.4.3-.5.5-8.6 8.6-7 17-5.2 22.7l.3.9c7.1 17.2 17.1 33.4 32.3 52.7l.1.1c27.6 34 56.7 60.5 88.8 80.8 4.1 2.6 8.3 4.7 12.3 6.7 3.6 1.8 7 3.5 9.9 5.3.4.2.8.5 1.2.7 3.4 1.7 6.6 2.5 9.9 2.5 8.3 0 13.5-5.2 15.2-6.9l34.2-34.2c3.4-3.4 8.8-7.5 15.1-7.5 6.2 0 11.3 3.9 14.4 7.3l.2.2 55.1 55.1c10.3 10.2 10.3 20.7.1 31.3zM256.056 112.706c26.2 4.4 50 16.8 69 35.8s31.3 42.8 35.8 69c1.1 6.6 6.8 11.2 13.3 11.2.8 0 1.5-.1 2.3-.2 7.4-1.2 12.3-8.2 11.1-15.6-5.4-31.7-20.4-60.6-43.3-83.5s-51.8-37.9-83.5-43.3c-7.4-1.2-14.3 3.7-15.6 11s3.5 14.4 10.9 15.6zM473.256 209.006c-8.9-52.2-33.5-99.7-71.3-137.5s-85.3-62.4-137.5-71.3c-7.3-1.3-14.2 3.7-15.5 11-1.2 7.4 3.7 14.3 11.1 15.6 46.6 7.9 89.1 30 122.9 63.7 33.8 33.8 55.8 76.3 63.7 122.9 1.1 6.6 6.8 11.2 13.3 11.2.8 0 1.5-.1 2.3-.2 7.3-1.1 12.3-8.1 11-15.4z"/></g></svg><svg fill="none" viewBox="0 0 20 20" id="search" xmlns="http://www.w3.org/2000/svg"><path d="M9.183 16.534a7.35 7.35 0 100-14.7 7.35 7.35 0 000 14.7zM18.167 18.167l-3.85-3.85" stroke="#131721" stroke-width="2" stroke-linecap="round" stroke-linejoin="round"/></svg><svg fill="none" viewBox="0 0 15 12" id="smart-house" xmlns="http://www.w3.org/2000/svg"><path d="M7.5 9.75a3.125 3.125 0 100-6.25 3.125 3.125 0 000 6.25zM7.5 6.625L5.313 8.812" stroke="#131721" stroke-width="1.2" stroke-linecap="round" stroke-linejoin="round"/><path d="M11.563 2.813a.25.25 0 100-.5.25.25 0 000 .5zM3.5 10.937a.25.25 0 100-.5.25.25 0 000 .5zM13.188 6.875a.25.25 0 100-.5.25.25 0 000 .5zM1.813 6.875a.25.25 0 100-.5.25.25 0 000 .5zM11.563 10.937a.25.25 0 100-.5.25.25 0 000 .5zM3.5 2.813a.25.25 0 100-.5.25.25 0 000 .5zM7.5 1.187a.25.25 0 100-.5.25.25 0 000 .5z" fill="#131721" stroke="#131721" stroke-width="1.2" stroke-linecap="round" stroke-linejoin="round"/></svg><svg fill="none" viewBox="0 0 20 20" id="stop" xmlns="http://www.w3.org/2000/svg"><path d="M5.4 18.437l-3.8-3.8c-.4-.4-.6-.9-.6-1.4v-6.4c0-.5.2-1 .6-1.4l3.8-3.8c.4-.4.9-.6 1.4-.6h6.3c.5 0 1 .2 1.4.6l3.8 3.8c.4.4.6.9.6 1.4v6.3c0 .5-.2 1-.6 1.4l-4.4 4.4H6.7c-.4.1-.9-.1-1.3-.5zM7 13.037l6-6M13 13.037l-6-6" stroke="#E30611" stroke-width="1.7" stroke-linecap="round" stroke-linejoin="round"/></svg><svg viewBox="0 0 24 24" id="telegramm" xmlns="http://www.w3.org/2000/svg"><circle opacity=".7" cx="12" cy="12" r="12"/><path d="M5.61 12.225l2.76 1.028 1.075 3.46c.047.234.327.281.514.14l1.543-1.262c.14-.14.374-.14.561 0l2.76 2.01c.186.141.467.048.514-.186l2.057-9.82c.047-.234-.187-.467-.42-.374L5.61 11.617c-.28.093-.28.514 0 .607zm3.695.514l5.424-3.32c.093-.047.187.093.093.14l-4.442 4.162c-.14.14-.28.327-.28.56l-.14 1.123c0 .14-.235.187-.281 0l-.562-2.057c-.14-.234-.046-.515.188-.608z" fill="#fff"/></svg><svg fill="none" viewBox="0 0 3 18" id="vertical-more" xmlns="http://www.w3.org/2000/svg"><path opacity=".7" d="M1.5 3.5a1.5 1.5 0 100-3 1.5 1.5 0 000 3zM1.5 10.5a1.5 1.5 0 100-3 1.5 1.5 0 000 3zM1.5 17.5a1.5 1.5 0 100-3 1.5 1.5 0 000 3z" fill="#969FA8"/></svg><svg viewBox="0 0 24 24" id="watsapp" xmlns="http://www.w3.org/2000/svg"><circle opacity=".7" cx="12" cy="12" r="12"/><path d="M16.756 7.237A6.257 6.257 0 0012.322 5.4c-3.468 0-6.278 2.8-6.278 6.256 0 1.094.307 2.188.834 3.106L6 18l3.337-.875a6.42 6.42 0 002.985.744c3.468 0 6.278-2.8 6.278-6.256-.044-1.62-.659-3.194-1.844-4.376zm-1.405 6.65c-.132.35-.746.7-1.053.744a2.461 2.461 0 01-.966-.043c-.22-.088-.527-.175-.878-.35-1.58-.657-2.59-2.232-2.678-2.363-.088-.088-.659-.831-.659-1.619 0-.787.395-1.137.527-1.312.132-.175.307-.175.439-.175h.307c.088 0 .22-.044.351.262.132.306.44 1.094.483 1.138a.278.278 0 010 .262.915.915 0 01-.175.263c-.088.087-.176.218-.22.262-.088.088-.175.175-.088.306.088.175.396.657.879 1.094.614.525 1.097.7 1.273.788.175.087.263.043.35-.044.089-.088.396-.438.484-.612.088-.175.22-.132.351-.088.132.044.922.438 1.054.525.175.087.263.131.307.175.044.131.044.438-.088.787z" fill="#fff"/></svg></svg>