<?xml version="1.0" encoding="utf-8"?><svg viewBox="0 0 103 24" xmlns="http://www.w3.org/2000/svg" xmlns:xlink="http://www.w3.org/1999/xlink"><style>:root>svg{display:none}:root>svg:target{display:block}</style><svg fill="none" viewBox="0 0 22 23" id="cart" xmlns="http://www.w3.org/2000/svg"><path d="M5 4.7l-.817-3.5H1.967M7.1 14.267L5 4.7h14.817c.7 0 1.283.7 1.166 1.4l-1.75 8.167c-.116.583-.583.933-1.166.933h-9.8c-.584 0-1.05-.35-1.167-.933z" stroke="#131721" stroke-width="2" stroke-miterlimit="10" stroke-linecap="round" stroke-linejoin="round"/><path d="M17.45 19.517c-.75 0-1.5.75-1.5 1.5s.75 1.5 1.5 1.5 1.5-.75 1.5-1.5c0-1.125-.75-1.5-1.5-1.5zM8.417 19.517c-.75 0-1.5.75-1.5 1.5s.75 1.5 1.5 1.5 1.5-.75 1.5-1.5c0-1.125-.75-1.5-1.5-1.5z" fill="#131721"/></svg><svg fill="none" viewBox="0 0 19 14" id="catalog" xmlns="http://www.w3.org/2000/svg"><path d="M6 1h12M1 1h1M1 7h1M1 13h1M6 7h12M6 13h12" stroke="#fff" stroke-width="2" stroke-linecap="round" stroke-linejoin="round"/></svg><svg fill="none" viewBox="0 0 10 6" id="chevron" xmlns="http://www.w3.org/2000/svg"><path d="M1 1l4 4 4-4" stroke="#969FA8" stroke-width="1.5" stroke-linecap="round" stroke-linejoin="round"/></svg><svg fill="none" viewBox="0 0 20 20" id="compare" xmlns="http://www.w3.org/2000/svg"><path d="M1.25 18.167v-5.834M7.083 18.167v-10.5M12.917 18.167V1.833M18.75 18.167V10" stroke="#131721" stroke-width="2" stroke-linecap="round" stroke-linejoin="round"/></svg><svg viewBox="0 0 103 3" id="dotted" xmlns="http://www.w3.org/2000/svg"><path d="M1.5.5a1 1 0 100 2v-2zm100 2a1 1 0 000-2v2zm-100 0a1 1 0 000-2v2zm5.882-2a1 1 0 100 2v-2zm0 2a1 1 0 000-2v2zm5.883-2a1 1 0 100 2v-2zm0 2a1 1 0 000-2v2zm5.882-2a1 1 0 100 2v-2zm0 2a1 1 0 100-2v2zm5.882-2a1 1 0 100 2v-2zm0 2a1 1 0 000-2v2zm5.883-2a1 1 0 100 2v-2zm0 2a1 1 0 100-2v2zm5.882-2a1 1 0 100 2v-2zm0 2a1 1 0 000-2v2zm5.882-2a1 1 0 100 2v-2zm0 2a1 1 0 100-2v2zm5.883-2a1 1 0 100 2v-2zm0 2a1 1 0 100-2v2zm5.882-2a1 1 0 100 2v-2zm0 2a1 1 0 100-2v2zm5.882-2a1 1 0 100 2v-2zm0 2a1 1 0 100-2v2zm5.883-2a1 1 0 000 2v-2zm0 2a1 1 0 100-2v2zm5.882-2a1 1 0 100 2v-2zm0 2a1 1 0 100-2v2zm5.883-2a1 1 0 100 2v-2zm0 2a1 1 0 100-2v2zm5.882-2a1 1 0 100 2v-2zm0 2a1 1 0 100-2v2zm5.882-2a1 1 0 100 2v-2zm0 2a1 1 0 000-2v2zm5.883-2a1 1 0 100 2v-2zm0 2a1 1 0 100-2v2zm5.882-2a1 1 0 000 2v-2zm-100 2v-2 2zm5.882 0v-2 2zm5.883 0v-2 2zm5.882 0v-2 2zm5.882 0v-2 2zm5.883 0v-2 2zm5.882 0v-2 2zm5.882 0v-2 2zm5.883 0v-2 2zm5.882 0v-2 2zm5.882 0v-2 2zm5.883 0v-2 2zm5.882 0v-2 2zm5.883 0v-2 2zm5.882 0v-2 2zm5.882 0v-2 2zm5.883 0v-2 2zm5.882 0v-2 2z"/></svg><svg fill="none" viewBox="0 0 24 22" id="favorites" xmlns="http://www.w3.org/2000/svg"><path d="M16.317 1.667c3.733 0 6.183 3.5 6.183 6.766 0 6.534-10.267 11.9-10.5 11.9-.233 0-10.5-5.366-10.5-11.9 0-3.266 2.45-6.766 6.183-6.766 2.1 0 3.5 1.05 4.317 1.983.817-.933 2.217-1.983 4.317-1.983z" stroke="#131721" stroke-width="2" stroke-miterlimit="10" stroke-linecap="round" stroke-linejoin="round"/></svg><svg fill="none" viewBox="0 0 16 20" id="location" xmlns="http://www.w3.org/2000/svg"><path d="M8 11c-1.7 0-3-1.3-3-3s1.3-3 3-3 3 1.3 3 3-1.3 3-3 3z" stroke="#131721" stroke-width="1.5" stroke-linecap="round" stroke-linejoin="round"/><path d="M8 19S1 13.2 1 8c0-3.9 3.1-7 7-7s7 3.1 7 7c0 5.3-7 11-7 11z" stroke="#131721" stroke-width="1.5" stroke-miterlimit="10" stroke-linecap="round" stroke-linejoin="round"/></svg><svg fill="none" viewBox="0 0 20 20" id="search" xmlns="http://www.w3.org/2000/svg"><path d="M9.183 16.534a7.35 7.35 0 100-14.7 7.35 7.35 0 000 14.7zM18.167 18.167l-3.85-3.85" stroke="#131721" stroke-width="2" stroke-linecap="round" stroke-linejoin="round"/></svg><svg fill="none" viewBox="0 0 15 12" id="smart-house" xmlns="http://www.w3.org/2000/svg"><path d="M7.5 9.75a3.125 3.125 0 100-6.25 3.125 3.125 0 000 6.25zM7.5 6.625L5.313 8.812" stroke="#131721" stroke-width="1.2" stroke-linecap="round" stroke-linejoin="round"/><path d="M11.563 2.813a.25.25 0 100-.5.25.25 0 000 .5zM3.5 10.937a.25.25 0 100-.5.25.25 0 000 .5zM13.188 6.875a.25.25 0 100-.5.25.25 0 000 .5zM1.813 6.875a.25.25 0 100-.5.25.25 0 000 .5zM11.563 10.937a.25.25 0 100-.5.25.25 0 000 .5zM3.5 2.813a.25.25 0 100-.5.25.25 0 000 .5zM7.5 1.187a.25.25 0 100-.5.25.25 0 000 .5z" fill="#131721" stroke="#131721" stroke-width="1.2" stroke-linecap="round" stroke-linejoin="round"/></svg><svg fill="none" viewBox="0 0 20 20" id="stop" xmlns="http://www.w3.org/2000/svg"><path d="M5.4 18.437l-3.8-3.8c-.4-.4-.6-.9-.6-1.4v-6.4c0-.5.2-1 .6-1.4l3.8-3.8c.4-.4.9-.6 1.4-.6h6.3c.5 0 1 .2 1.4.6l3.8 3.8c.4.4.6.9.6 1.4v6.3c0 .5-.2 1-.6 1.4l-4.4 4.4H6.7c-.4.1-.9-.1-1.3-.5zM7 13.037l6-6M13 13.037l-6-6" stroke="#E30611" stroke-width="1.7" stroke-linecap="round" stroke-linejoin="round"/></svg><svg viewBox="0 0 24 24" id="telegramm" xmlns="http://www.w3.org/2000/svg"><circle opacity=".7" cx="12" cy="12" r="12"/><path d="M5.61 12.225l2.76 1.028 1.075 3.46c.047.234.327.281.514.14l1.543-1.262c.14-.14.374-.14.561 0l2.76 2.01c.186.141.467.048.514-.186l2.057-9.82c.047-.234-.187-.467-.42-.374L5.61 11.617c-.28.093-.28.514 0 .607zm3.695.514l5.424-3.32c.093-.047.187.093.093.14l-4.442 4.162c-.14.14-.28.327-.28.56l-.14 1.123c0 .14-.235.187-.281 0l-.562-2.057c-.14-.234-.046-.515.188-.608z" fill="#fff"/></svg><svg fill="none" viewBox="0 0 3 18" id="vertical-more" xmlns="http://www.w3.org/2000/svg"><path opacity=".7" d="M1.5 3.5a1.5 1.5 0 100-3 1.5 1.5 0 000 3zM1.5 10.5a1.5 1.5 0 100-3 1.5 1.5 0 000 3zM1.5 17.5a1.5 1.5 0 100-3 1.5 1.5 0 000 3z" fill="#969FA8"/></svg><svg viewBox="0 0 24 24" id="watsapp" xmlns="http://www.w3.org/2000/svg"><circle opacity=".7" cx="12" cy="12" r="12"/><path d="M16.756 7.237A6.257 6.257 0 0012.322 5.4c-3.468 0-6.278 2.8-6.278 6.256 0 1.094.307 2.188.834 3.106L6 18l3.337-.875a6.42 6.42 0 002.985.744c3.468 0 6.278-2.8 6.278-6.256-.044-1.62-.659-3.194-1.844-4.376zm-1.405 6.65c-.132.35-.746.7-1.053.744a2.461 2.461 0 01-.966-.043c-.22-.088-.527-.175-.878-.35-1.58-.657-2.59-2.232-2.678-2.363-.088-.088-.659-.831-.659-1.619 0-.787.395-1.137.527-1.312.132-.175.307-.175.439-.175h.307c.088 0 .22-.044.351.262.132.306.44 1.094.483 1.138a.278.278 0 010 .262.915.915 0 01-.175.263c-.088.087-.176.218-.22.262-.088.088-.175.175-.088.306.088.175.396.657.879 1.094.614.525 1.097.7 1.273.788.175.087.263.043.35-.044.089-.088.396-.438.484-.612.088-.175.22-.132.351-.088.132.044.922.438 1.054.525.175.087.263.131.307.175.044.131.044.438-.088.787z" fill="#fff"/></svg></svg>